<?xml version="1.0" standalone="no"?>
<!DOCTYPE svg PUBLIC "-//W3C//DTD SVG 1.1//EN" "http://www.w3.org/Graphics/SVG/1.1/DTD/svg11.dtd">
<svg xmlns="http://www.w3.org/2000/svg">
<metadata>Copyright (C) 2024 by original authors @ fontello.com</metadata>
<defs>
<font id="fontello" horiz-adv-x="1000" >
<font-face font-family="fontello" font-weight="400" font-stretch="normal" units-per-em="1000" ascent="850" descent="-150" />
<missing-glyph horiz-adv-x="1000" />
<glyph glyph-name="account-circle" unicode="&#xe800;" d="M500 767c-230 0-417-187-417-417 0-230 187-417 417-417 230 0 417 187 417 417 0 230-187 417-417 417z m0-125c69 0 125-56 125-125 0-69-56-125-125-125-69 0-125 56-125 125 0 69 56 125 125 125z m0-592c-104 0-196 53-250 134 1 83 167 129 250 129 83 0 249-46 250-129-54-81-146-134-250-134z" horiz-adv-x="1000" />

<glyph glyph-name="close" unicode="&#xe801;" d="M763 613c-17 16-42 16-59 0l-204-205-204 205c-17 16-42 16-58 0s-17-42 0-59l204-204-204-204c-17-17-17-42 0-58s41-17 58 0l204 204 204-204c17-17 42-17 59 0s16 41 0 58l-205 204 205 204c16 17 16 42 0 59l0 0z" horiz-adv-x="1000" />

<glyph glyph-name="credit-card" unicode="&#xe802;" d="M833 683h-666c-47 0-83-37-83-83l-1-500c0-46 37-83 84-83h666c47 0 84 37 84 83v500c0 46-37 83-84 83z m-41-583h-584c-23 0-41 19-41 42v208h666v-208c0-23-18-42-41-42z m41 417h-666v83h666v-83z" horiz-adv-x="1000" />

<glyph glyph-name="data-usage" unicode="&#xe803;" d="M542 689v-1c0-28 18-51 45-60 118-37 205-147 205-278 0-22-3-42-7-62-6-27 5-54 28-68l1-1c36-21 82-2 92 38 7 30 11 61 11 93 0 188-124 347-295 399-40 12-80-19-80-60v0z m-86-627c-125 18-226 119-244 243-23 150 69 282 201 323 27 8 45 32 45 60v1c0 41-40 72-80 60-188-58-319-244-291-457 25-182 172-330 355-355 131-17 251 26 338 106 31 28 26 79-10 100-25 14-55 9-75-10-62-55-147-85-239-71v0z" horiz-adv-x="1000" />

<glyph glyph-name="edit" unicode="&#xe804;" d="M125 123v-127c0-12 9-21 21-21h127c5 0 10 2 14 6l455 455-156 156-455-454c-4-5-6-10-6-15z m738 434c16 16 16 42 0 58l-98 98c-16 16-42 16-58 0l-77-76 157-157 76 77v0z" horiz-adv-x="1000" />

<glyph glyph-name="exit-to-app" unicode="&#xe805;" d="M450 171c16-16 42-16 58 0l150 150c16 16 16 42 0 59l-150 149c-16 16-42 16-58 0-17-16-17-42 0-59l78-78h-361c-23 0-42-19-42-42 0-23 19-42 42-42h361l-78-78c-17-16-16-43 0-59z m342 554h-584c-46 0-83-37-83-83v-125c0-23 19-42 42-42 23 0 41 19 41 42v83c0 23 19 42 42 42h500c23 0 42-19 42-42v-500c0-23-19-42-42-42h-500c-23 0-42 19-42 42v83c0 23-18 42-41 42-23 0-42-19-42-42v-125c0-45 38-83 83-83h584c46 0 83 38 83 83v584c0 46-37 83-83 83z" horiz-adv-x="1000" />

<glyph glyph-name="language" unicode="&#xe806;" d="M500 767c-230 0-417-187-417-417 0-230 187-417 417-417 230 0 417 187 417 417 0 230-187 417-417 417z m288-250h-123c-13 52-32 102-57 148 77-26 140-80 180-148z m-288 165c35-50 62-106 80-165h-160c18 59 45 115 80 165z m-322-415c-7 26-11 54-11 83 0 29 4 57 11 83h140c-3-27-5-55-5-83 0-28 2-56 5-83h-140z m34-84h123c13-52 32-102 57-148-77 26-140 79-180 148v0z m123 334h-123c40 69 103 122 180 148-25-46-44-96-57-148v0z m165-499c-35 50-62 106-80 165h160c-18-59-45-115-80-165z m98 249h-195c-4 27-7 55-7 83 0 28 3 56 7 83h195c3-27 6-55 6-83 0-28-3-56-6-83z m10-232c25 46 44 96 57 148h123c-40-68-103-122-180-148v0z m74 232c3 27 6 55 6 83 0 28-3 56-6 83h141c6-26 10-54 10-83 0-29-4-57-10-83h-141z" horiz-adv-x="1000" />

<glyph glyph-name="menu-9dot" unicode="&#xe807;" d="M83 558h209v209h-209v-209z m313-625h208v209h-208v-209z m-313 0h209v209h-209v-209z m0 313h209v208h-209v-208z m313 0h208v208h-208v-208z m312 521v-209h209v209h-209z m-312-209h208v209h-208v-209z m312-312h209v208h-209v-208z m0-313h209v209h-209v-209z" horiz-adv-x="1000" />

<glyph glyph-name="perm-identity" unicode="&#xe808;" d="M500 600c46 0 83-37 83-83 0-46-37-84-83-84-46 0-83 38-83 84 0 46 37 83 83 83z m0-375c113 0 242-54 250-83v-42h-500v41c8 30 138 84 250 84v0z m0 458c-92 0-167-74-167-166 0-92 75-167 167-167 92 0 167 75 167 167 0 92-75 166-167 166v0z m0-375c-111 0-333-55-333-166v-125h666v125c0 111-222 166-333 166v0z" horiz-adv-x="1000" />

<glyph glyph-name="phone" unicode="&#xe809;" d="M273 642c2-37 8-74 18-108l-50-50c-17 50-28 103-31 158h63v0z m410-501c36-10 72-16 109-19v-62c-55 4-108 15-159 31l50 50v0z m-370 584h-146c-23 0-42-19-42-42 0-391 317-708 708-708 23 0 42 19 42 42v145c0 23-19 42-42 42-51 0-102 8-148 24-5 1-9 2-13 2-11 0-22-5-30-12l-92-92c-117 60-214 157-274 274l92 92c11 12 15 28 10 43-15 46-24 96-24 148 0 23-19 42-41 42z" horiz-adv-x="1000" />

<glyph glyph-name="settings" unicode="&#xe80a;" d="M810 309c1 14 3 27 3 41 0 14-2 28-3 41l88 69c7 6 10 17 5 26l-84 144c-5 10-16 13-25 10l-104-42c-22 17-45 30-70 41l-16 110c-1 10-10 18-21 18h-166c-11 0-19-8-21-18l-16-110c-25-11-48-25-70-41l-104 42c-9 3-20 0-25-10l-83-144c-6-9-3-20 5-26l87-69c-1-13-2-27-2-41 0-14 1-27 2-41l-87-69c-8-6-10-17-5-26l83-144c5-10 16-13 25-10l104 42c22-17 45-30 70-41l16-110c2-10 10-18 21-18h166c11 0 20 8 21 18l16 110c25 11 48 25 70 41l104-42c9-3 20 0 25 10l84 144c5 9 2 20-5 26l-88 69v0z m-310-105c-80 0-146 66-146 146 0 80 66 146 146 146 80 0 146-66 146-146 0-80-66-146-146-146z" horiz-adv-x="1000" />

<glyph glyph-name="timer" unicode="&#xe80b;" d="M628 808h-250v-83h250v83 0z m-167-542h84v250h-84v-250z m335 276l59 59c-18 22-37 42-59 59l-59-59c-64 52-146 82-234 82-207 0-375-168-375-375 0-207 167-375 375-375 207 0 375 168 375 375 0 88-31 170-82 234z m-293-526c-161 0-292 131-292 292 0 161 131 292 292 292 161 0 292-131 292-292 0-161-131-292-292-292z" horiz-adv-x="1000" />

<glyph glyph-name="verification-mark" unicode="&#xe80c;" d="M375 175l-175 175-58-58 233-234 500 500-58 59-442-442z" horiz-adv-x="1000" />

<glyph glyph-name="visibility-off" unicode="&#xe80d;" d="M500 579c115 0 208-93 208-208 0-21-4-42-10-61l128-127c58 51 104 115 132 188-72 183-250 312-458 312-53 0-104-8-152-23l91-91c19 6 40 10 61 10z m-387 139c-16-16-16-42 0-58l82-82c-67-54-121-125-153-207 72-183 250-313 458-313 63 0 124 13 180 35l113-114c16-16 42-16 59 0 16 16 16 43 0 59l-680 680c-16 17-43 17-59 0z m387-555c-115 0-208 93-208 208 0 32 7 62 20 89l66-65c-2-8-3-16-3-24 0-69 56-125 125-125 8 0 16 1 24 3l65-66c-27-13-57-20-89-20z m124 222c-6 58-52 103-110 110l110-110z" horiz-adv-x="1000" />

<glyph glyph-name="visibility" unicode="&#xe80e;" d="M500 683c-208 0-386-129-458-312 72-183 250-313 458-313 208 0 386 130 458 313-72 183-250 312-458 312z m0-520c-115 0-208 93-208 208 0 115 93 208 208 208 115 0 208-93 208-208 0-115-93-208-208-208z m0 333c-69 0-125-56-125-125 0-69 56-125 125-125 69 0 125 56 125 125 0 69-56 125-125 125z" horiz-adv-x="1000" />

<glyph glyph-name="vpn-key" unicode="&#xe80f;" d="M917 58h-250v167h-112c-47-101-150-167-263-167-161 0-292 131-292 292 0 161 131 292 292 292 113 0 215-66 263-167h445v-250h-83v-167z m-167 84h83v166h84v84h-419l-10 28c-29 83-108 138-196 138-115 0-209-93-209-208 0-115 94-208 209-208 88 0 167 56 196 138l10 28h252v-166z m-458 83c-69 0-125 56-125 125 0 69 56 125 125 125 68 0 125-56 125-125 0-69-57-125-125-125z m0 167c-23 0-42-19-42-42 0-23 19-42 42-42 23 0 41 19 41 42 0 23-18 42-41 42z" horiz-adv-x="1000" />

<glyph glyph-name="warning" unicode="&#xe810;" d="M42-25h916l-458 792-458-792z m500 125h-84v83h84v-83z m0 167h-84v166h84v-166z" horiz-adv-x="1000" />

<glyph glyph-name="archive" unicode="&#xe811;" d="M856 632l-58 70c-11 14-28 23-48 23h-500c-20 0-37-9-48-23l-58-70c-12-14-19-33-19-53v-521c0-45 38-83 83-83h584c46 0 83 38 83 83v521c0 20-7 39-19 53z m-596 10h480l34-41h-547l33 41z m-52-584v459h584v-459h-584z m352 375h-120v-125h-107l167-166 167 166h-107v125z" horiz-adv-x="1000" />

<glyph glyph-name="cloud" unicode="&#xe812;" d="M500 600c109 0 203-77 225-185l12-62 64-5c65-4 116-58 116-123 0-69-57-125-125-125h-542c-92 0-167 75-167 167 0 85 64 156 149 165l44 5 21 39c40 77 117 124 203 124z m0 83c-120 0-225-68-277-168-125-13-223-120-223-248 0-138 112-250 250-250h542c115 0 208 93 208 208 0 110-85 199-194 207-28 143-154 251-306 251z" horiz-adv-x="1000" />

<glyph glyph-name="dashboard" unicode="&#xe813;" d="M792 642v-84h-167v84h167z m-417 0v-250h-167v250h167z m417-334v-250h-167v250h167z m-417-166v-84h-167v84h167z m500 583h-333v-250h333v250z m-417 0h-333v-417h333v417z m417-333h-333v-417h333v417z m-417-167h-333v-250h333v250z" horiz-adv-x="1000" />

<glyph glyph-name="info" unicode="&#xe814;" d="M458 558h84v-83h-84v83z m0-166h84v-250h-84v250z m42 375c-230 0-417-187-417-417 0-230 187-417 417-417 230 0 417 187 417 417 0 230-187 417-417 417z m0-750c-184 0-333 149-333 333 0 184 149 333 333 333 184 0 333-149 333-333 0-184-149-333-333-333z" horiz-adv-x="1000" />

<glyph glyph-name="refresh" unicode="&#xe815;" d="M733 588c-58 58-141 95-233 95-183 0-333-150-333-333s150-333 333-333c154 0 283 104 321 250h-88c-33-96-125-167-233-167-137 0-250 113-250 250s113 250 250 250c71 0 129-29 175-75l-133-133h291v291l-100-95z" horiz-adv-x="1000" />

<glyph glyph-name="save-alt" unicode="&#xe816;" d="M792 350v-292h-584v292h-83v-292c0-45 38-83 83-83h584c46 0 83 38 83 83v292h-83z m-250-28l108 108 58-59-208-208-208 208 58 59 108-108v403h84v-403z" horiz-adv-x="1000" />

<glyph glyph-name="search" unicode="&#xe817;" d="M646 267h-33l-12 11c41 47 66 109 66 176 0 150-122 271-271 271-150 0-271-121-271-271 0-149 121-271 271-271 67 0 129 25 176 66l11-12v-33l209-208 62 62-208 209v0z m-250 0c-104 0-188 83-188 187 0 104 84 188 188 188 104 0 187-84 187-188 0-104-83-187-187-187z" horiz-adv-x="1000" />

<glyph glyph-name="videocam" unicode="&#xe818;" d="M625 517v-334h-417v334h417z m42 83h-500c-23 0-42-19-42-42v-416c0-23 19-42 42-42h500c23 0 41 19 41 42v146l167-167v458l-167-166v145c0 23-18 42-41 42z" horiz-adv-x="1000" />

<glyph glyph-name="arrow-downward" unicode="&#xe819;" d="M458 642v-467l-204 204c-16 17-41 17-58 0-17-16-17-41 0-58l275-275c17-17 42-17 58 0l275 275c17 17 17 42 0 58-16 17-41 17-58 0l-204-204v467c0 25-17 41-42 41s-42-16-42-41z" horiz-adv-x="1000" />

<glyph glyph-name="arrow-upward" unicode="&#xe81a;" d="M542 58v467l204-204c17-17 42-17 58 0 17 17 17 42 0 58l-275 275c-16 17-41 17-58 0l-275-275c-17-16-17-41 0-58 17-17 42-17 58 0l204 204v-467c0-20 17-41 42-41s42 21 42 41z" horiz-adv-x="1000" />

<glyph glyph-name="keyboard_solid_arrowright" unicode="&#xe81b;" d="M358 158l192 192-192 192 59 58 250-250-250-250-59 58z" horiz-adv-x="1000" />

<glyph glyph-name="keyboard-arrow-left" unicode="&#xe81c;" d="M613 188l-163 162 163 163c16 16 16 41 0 58s-42 17-59 0l-191-192c-17-16-17-41 0-58l191-192c17-16 42-16 59 0 16 17 16 42 0 59z" horiz-adv-x="1000" />

<glyph glyph-name="info-round" unicode="&#xe81d;" d="M500 767c-229 0-417-188-417-417s188-417 417-417 417 188 417 417-188 417-417 417z m0-625c-25 0-42 21-42 41v167c0 25 17 42 42 42s42-17 42-42v-167c0-20-17-41-42-41z m42 333h-84v83h84v-83z" horiz-adv-x="1000" />

<glyph glyph-name="arrow-drop-down" unicode="&#xe81e;" d="M292 433l208-208 208 208h-416z" horiz-adv-x="1000" />

<glyph glyph-name="today-outline" unicode="&#xe81f;" d="M792 725h-42v83h-83v-83h-334v83h-83v-83h-42c-46 0-83-37-83-83v-584c0-45 37-83 83-83h584c46 0 83 38 83 83v584c0 46-37 83-83 83z m0-667h-584v417h584v-417z m0 500h-584v84h584v-84z m-500-166h208v-209h-208v209z" horiz-adv-x="1000" />

<glyph glyph-name="help-outline" unicode="&#xe820;" d="M500 767c-230 0-417-187-417-417 0-230 187-417 417-417 230 0 417 187 417 417 0 230-187 417-417 417z m0-750c-184 0-333 149-333 333 0 184 149 333 333 333 184 0 333-149 333-333 0-184-149-333-333-333z m-42 166h84v-83h-84v83z m67 415c-85 13-161-40-184-116-8-24 11-49 36-49h8c18 0 31 12 37 28 13 37 53 63 96 54 40-9 69-47 65-88-4-56-67-68-102-120 0 0 0 0 0-1-1-1-1-1-1-2-4-6-8-13-11-21 0-1-1-2-1-3-1-1-1-2-1-3-5-14-9-31-9-52h84c0 18 4 32 11 45 1 1 2 2 2 3 4 6 8 12 12 17 1 0 1 1 1 1 5 5 9 10 14 14 40 38 94 69 83 149-10 72-67 134-140 144v0z" horiz-adv-x="1000" />

<glyph glyph-name="contract" unicode="&#xe821;" d="M250-67c-35 0-64 12-88 37-25 24-37 54-37 88v125h125v584h625v-709c0-34-12-64-36-88-25-25-54-37-89-37h-500z m500 84c12 0 22 4 30 12 8 8 12 18 12 29v625h-459v-500h375v-125c0-11 4-21 12-29 8-8 18-12 30-12z m-375 458v83h375v-83h-375z m0-125v83h375v-83h-375z m-125-333h375v83h-417v-42c0-11 4-21 12-29 8-8 18-12 30-12z m0 0h-42 417-375z" horiz-adv-x="1000" />

<glyph glyph-name="history" unicode="&#xe822;" d="M542 725c-207 0-375-168-375-375h-125l162-162 3-6 168 168h-125c0 161 130 292 292 292 161 0 291-131 291-292 0-161-130-292-291-292-81 0-154 33-206 86l-59-59c68-68 161-110 265-110 207 0 375 168 375 375 0 207-168 375-375 375z m-42-208v-209l177-105 32 54-146 87v173h-63z" horiz-adv-x="1000" />

<glyph glyph-name="receipt" unicode="&#xe823;" d="M813 704l-63 63-62-63-63 63-62-63-63 63-62-63-63 63-62-63-63 63-62-63-63 63v-834l63 63 62-63 63 63 62-63 63 63 62-63 63 63 62-63 63 63 62-63 63 63 62-63v834l-62-63z m-21-649h-584v590h584v-590z m-542 170h500v-83h-500v83z m0 167h500v-84h-500v84z m0 166h500v-83h-500v83z" horiz-adv-x="1000" />

<glyph glyph-name="more_vert" unicode="&#xe824;" d="M500 17c-25 0-42 8-58 25s-25 33-25 58c0 21 8 42 25 58s33 25 58 25 42-8 58-25 25-37 25-58c0-25-8-42-25-58s-33-25-58-25z m0 250c-25 0-42 8-58 25s-25 33-25 58c0 21 8 42 25 58s33 25 58 25 42-8 58-25 25-37 25-58c0-25-8-42-25-58s-33-25-58-25z m0 250c-25 0-42 8-58 25-17 16-25 33-25 58s8 42 25 58c16 17 33 25 58 25s42-8 58-25c17-16 25-37 25-58s-8-42-25-58c-16-17-33-25-58-25z" horiz-adv-x="1000" />

<glyph glyph-name="filter-alt" unicode="&#xe825;" d="M486 58c-11 0-20 4-27 11-7 7-10 16-10 26v241l-234 297c-8 10-9 22-3 33 6 12 15 17 29 17h541c13 0 23-5 28-17 6-11 5-23-3-33l-233-297v-241c0-10-4-19-11-26-7-7-16-11-26-11h-51z" horiz-adv-x="1000" />

<glyph glyph-name="shield" unicode="&#xe826;" d="M500-67c-96 25-175 80-237 167s-96 183-96 288v254l333 125 333-125v-254c0-105-33-200-95-288-63-87-142-142-238-167z m0 88c71 21 133 67 179 137 46 67 71 146 71 230v195l-250 92-250-92v-195c0-84 25-163 71-230s108-116 179-137z" horiz-adv-x="1000" />

<glyph glyph-name="content_copy" unicode="&#xe827;" d="M375 100c-25 0-42 8-58 25s-25 33-25 58v500c0 25 8 42 25 59s33 25 58 25h375c25 0 42-9 58-25s25-38 25-59v-500c0-25-8-41-25-58s-33-25-58-25h-375z m0 83h375v500h-375v-500z m-167-250c-20 0-41 9-58 25s-25 34-25 59v583h83v-583h459v-84h-459z m167 250v500-500z" horiz-adv-x="1000" />
</font>
</defs>
</svg>
