<?xml version="1.0" standalone="no"?>
<!DOCTYPE svg PUBLIC "-//W3C//DTD SVG 1.1//EN" "http://www.w3.org/Graphics/SVG/1.1/DTD/svg11.dtd">
<svg xmlns="http://www.w3.org/2000/svg">
<metadata>Copyright (C) 2025 by original authors @ fontello.com</metadata>
<defs>
<font id="fontello" horiz-adv-x="1000" >
<font-face font-family="fontello" font-weight="400" font-stretch="normal" units-per-em="1000" ascent="850" descent="-150" />
<missing-glyph horiz-adv-x="1000" />
<glyph glyph-name="ic_developer_board_24px" unicode="&#xe800;" d="M917 475v83h-84v84c0 46-37 83-83 83h-583c-46 0-84-37-84-83v-584c0-45 38-83 84-83h583c46 0 83 38 83 83v84h84v83h-84v83h84v84h-84v83h84z m-167-417h-583v584h583v-584z m-500 250h208v-166h-208z m250 250h167v-125h-167z m-250 0h208v-208h-208z m250-166h167v-250h-167z" horiz-adv-x="1000" />

<glyph glyph-name="nvr" unicode="&#xe801;" d="M630 43v52h-156v-52c-14 0-27-5-37-15-10-11-15-23-15-38h261c0 15-6 27-16 38-10 10-23 15-37 15z m235 682h-625c-14 0-27-5-37-15-10-10-15-33-15-47h166c23 0 42-19 42-42v-146h138v174h45v-174h275v-42h-275v-154h-45v154h-138v-180-105h469c14 0 27 5 37 16 10 10 15 22 15 36v473c0 15-5 27-15 37-10 10-23 15-37 15z m-312-551c-8 0-14 3-20 8-5 5-7 11-7 18 0 7 2 14 7 19 6 5 12 7 20 7 7 0 13-2 18-7 5-5 7-12 7-19 0-7-2-13-7-18-5-5-11-8-18-8z m-417 446h156c14 0 26-5 36-15 11-10 16-22 16-37v-578c0-15-5-27-16-37-10-10-22-15-36-15h-156c-15 0-27 5-37 15-10 10-16 22-16 37v578c0 15 6 27 16 37 10 10 22 15 37 15z m7-517c5-5 11-8 19-8 7 0 13 3 18 8 5 5 8 11 8 18 0 7-3 14-8 19-5 5-11 8-18 8-8 0-14-3-19-8-5-5-7-12-7-19 0-7 2-13 7-18z m-7 307h156v53h-156v-53z m0 105h156v53h-156v-53z" horiz-adv-x="1000" />

<glyph glyph-name="cpu" unicode="&#xe802;" d="M917 454v70h-104v69c0 19-8 36-21 49-13 13-30 21-49 21h-69v104h-70v-104h-69v104h-70v-104h-69v104h-70v-104h-69c-18 0-36-8-49-21-13-13-20-30-20-49v-69h-105v-70h105v-69h-105v-70h105v-69h-105v-70h105v-69c0-18 7-36 20-49 13-13 31-20 49-20h69v-105h70v105h69v-105h70v105h69v-105h70v105h69c19 0 36 7 49 20 13 13 21 31 21 49v69h104v70h-104v69h104v70h-104v69h104z m-295-278c-11 0-21 3-29 9-9 6-16 14-20 24-3 9-5 20-3 30 3 10 7 19 15 26 7 8 16 13 26 15 11 2 21 1 31-3 9-4 17-11 23-20 6-8 9-18 9-28 0-14-6-28-16-37-9-10-23-16-36-16z" horiz-adv-x="1000" />

<glyph glyph-name="ram" unicode="&#xe803;" d="M813 163v-70h-105v70h-69v-70h-104v70h-70v-70h-104v70h-69v-70h-104v70h-70v-105c0-9 4-18 10-24 7-7 16-10 25-10h694c9 0 18 3 25 10 6 6 10 15 10 24v105h-69z m69 520h-764c-9 0-18-3-24-10-7-6-11-15-11-24v-417c0-9 4-18 11-25 6-6 15-10 24-10h764c9 0 18 4 25 10 6 7 10 16 10 25v417c0 9-4 18-10 24-7 7-16 10-25 10z m-521-347h-69v208h69v-208z m174 0h-70v208h70v-208z m173 0h-69v208h69v-208z" horiz-adv-x="1000" />

<glyph glyph-name="pci-card" unicode="&#xe804;" d="M882 586h-590v104c0 10-4 18-10 25-7 6-16 10-25 10h-139c-9 0-18-4-24-10-7-7-11-15-11-25 0-9 4-18 11-24 6-7 15-10 24-10h104v-695h70v208h590c9 0 18 4 25 11 6 6 10 15 10 24v347c0 10-4 18-10 25-7 7-16 10-25 10z m0-486h-382v-69h382v69z" horiz-adv-x="1000" />

<glyph glyph-name="disk-reader" unicode="&#xe805;" d="M882 364h-764c-19 0-35-16-35-35v-278c0-19 16-34 35-34h764c19 0 35 15 35 34v278c0 19-16 35-35 35z m-104-208h-556v69h556v-69z m80 277l-120 192c-7 11-18 17-30 17h-416c-12 0-23-6-30-17l-120-192h716z" horiz-adv-x="1000" />

<glyph glyph-name="ic_home_24px" unicode="&#xe806;" d="M417 17v250h166v-250h209v333h125l-417 375-417-375h125v-333z" horiz-adv-x="1000" />

<glyph glyph-name="application-stack" unicode="&#xe807;" d="M749 746l147-147c13-13 21-31 21-50 0-18-8-36-21-50l-147-146c-13-14-31-21-50-21-18 0-36 7-50 21l-146 146c-14 14-21 32-21 50 0 19 7 37 21 50l146 147c14 13 32 21 50 21 19 0 37-8 50-21z m-593-15h217c40 0 73-33 73-73v-217c0-40-33-73-73-73h-217c-40 0-73 33-73 73v217c0 40 33 73 73 73z m652-435h-217c-40 0-73-33-73-73v-217c0-40 33-73 73-73h217c40 0 73 33 73 73v217c0 40-33 73-73 73z m-652 0h217c40 0 73-33 73-73v-217c0-40-33-73-73-73h-217c-40 0-73 33-73 73v217c0 40 33 73 73 73z" horiz-adv-x="1000" />

<glyph glyph-name="warning" unicode="&#xe808;" d="M186-25h628c64 0 104 70 72 125l-314 542c-32 56-112 56-144 0l-314-542c-32-55 8-125 72-125z m314 292c-23 0-42 18-42 41v84c0 23 19 41 42 41 23 0 42-18 42-41v-84c0-23-19-41-42-41z m42-167h-84v83h84v-83z" horiz-adv-x="1000" />

<glyph glyph-name="ic_settings_24px" unicode="&#xe809;" d="M810 309c1 14 3 27 3 41s-2 28-3 41l88 69c7 6 10 17 5 26l-84 144c-5 10-16 13-25 10l-104-42c-22 17-45 30-70 41l-16 110c-1 10-10 18-21 18h-166c-11 0-19-8-21-18l-16-110c-25-11-48-25-70-41l-104 42c-9 3-20 0-25-10l-83-144c-6-9-3-20 5-26l87-69c-1-13-2-27-2-41s1-27 2-41l-87-69c-8-6-10-17-5-26l83-144c5-10 16-13 25-10l104 42c22-17 45-30 70-41l16-110c2-10 10-18 21-18h166c11 0 20 8 21 18l16 110c25 11 48 25 70 41l104-42c9-3 20 0 25 10l84 144c5 9 2 20-5 26l-88 69z m-310-105c-80 0-146 66-146 146s66 146 146 146 146-66 146-146-66-146-146-146z" horiz-adv-x="1000" />

<glyph glyph-name="ic_info_24px" unicode="&#xe80a;" d="M500 767c-230 0-417-187-417-417s187-417 417-417 417 187 417 417-187 417-417 417z m42-625h-84v250h84v-250z m0 333h-84v83h84v-83z" horiz-adv-x="1000" />

<glyph glyph-name="ic_arrow_forward_24px" unicode="&#xe80b;" d="M500 683l-59-58 233-233h-507v-84h507l-233-233 59-58 333 333z" horiz-adv-x="1000" />

<glyph glyph-name="save-alt" unicode="&#xe80c;" d="M792 308v-208c0-23-19-42-42-42h-500c-23 0-42 19-42 42v208c0 23-18 42-41 42-23 0-42-19-42-42v-250c0-45 38-83 83-83h584c46 0 83 38 83 83v250c0 23-19 42-42 42-23 0-41-19-41-42z m-250 14l78 78c16 17 43 17 59 0 16-16 16-42 0-58l-150-150c-16-16-42-16-59 0l-149 150c-16 16-16 42 0 58 16 17 42 17 59 0l78-78v361c0 23 19 42 42 42 23 0 42-19 42-42v-361z" horiz-adv-x="1000" />

<glyph glyph-name="ic_help_outline_24px" unicode="&#xe80d;" d="M458 100h84v83h-84v-83z m42 667c-230 0-417-187-417-417s187-417 417-417 417 187 417 417-187 417-417 417z m0-750c-184 0-333 149-333 333s149 333 333 333 333-149 333-333-149-333-333-333z m0 583c-92 0-167-75-167-167h84c0 46 37 84 83 84s83-38 83-84c0-83-125-73-125-208h84c0 94 125 104 125 208 0 92-75 167-167 167z" horiz-adv-x="1000" />

<glyph glyph-name="ic_search_24px" unicode="&#xe80e;" d="M646 267h-33l-12 11c41 47 66 109 66 176 0 150-122 271-271 271s-271-121-271-271 121-271 271-271c67 0 129 25 176 66l11-12v-33l209-208 62 62-208 209z m-250 0c-104 0-188 83-188 187s84 188 188 188 187-84 187-188-83-187-187-187z" horiz-adv-x="1000" />

<glyph glyph-name="ic_arrow_drop_down_24px" unicode="&#xe80f;" d="M292 433l208-208 208 208z" horiz-adv-x="1000" />

<glyph glyph-name="ic_show_chart_24px" unicode="&#xe810;" d="M146 80l250 250 167-167 354 399-59 58-295-332-167 167-313-313z" horiz-adv-x="1000" />

<glyph glyph-name="ic_close_24px" unicode="&#xe811;" d="M792 583l-59 59-233-233-233 233-59-59 233-233-233-233 59-59 233 233 233-233 59 59-233 233z" horiz-adv-x="1000" />

<glyph glyph-name="today" unicode="&#xe812;" d="M792 725h-42v83h-83v-83h-334v83h-83v-83h-42c-46 0-83-37-83-83v-584c0-45 37-83 83-83h584c46 0 83 38 83 83v584c0 46-37 83-83 83z m0-667h-584v417h584v-417z m0 500h-584v84h584v-84z m-500-166h208v-209h-208v209z" horiz-adv-x="1000" />

<glyph glyph-name="ic_keyboard_arrow_right_24px" unicode="&#xe813;" d="M358 169l191 191-191 192 59 58 250-250-250-250z" horiz-adv-x="1000" />

<glyph glyph-name="ic_keyboard_arrow_down_24px" unicode="&#xe814;" d="M309 523l191-190 191 190 59-58-250-250-250 250z" horiz-adv-x="1000" />

<glyph glyph-name="ic_refresh_24px" unicode="&#xe815;" d="M735 585c-60 61-143 98-235 98-184 0-333-149-333-333s149-333 333-333c155 0 285 106 322 250h-87c-34-97-126-167-235-167-138 0-250 112-250 250s112 250 250 250c69 0 131-29 176-74l-134-134h291v291l-98-98z" horiz-adv-x="1000" />

<glyph glyph-name="ic_keyboard_arrow_up_24px" unicode="&#xe816;" d="M309 208l191 191 191-191 59 59-250 250-250-250z" horiz-adv-x="1000" />

<glyph glyph-name="ic_content_copy_24px" unicode="&#xe817;" d="M667 808h-500c-46 0-84-37-84-83v-583h84v583h500v83z m125-166h-459c-45 0-83-38-83-84v-583c0-46 38-83 83-83h459c46 0 83 37 83 83v583c0 46-37 84-83 84z m0-667h-459v583h459v-583z" horiz-adv-x="1000" />

<glyph glyph-name="ic_notifications_none_24px" unicode="&#xe818;" d="M500-67c46 0 83 38 83 84h-166c0-46 37-84 83-84z m250 250v209c0 128-68 235-187 263v28c0 35-28 63-63 63s-62-28-62-63v-28c-120-28-188-135-188-263v-209l-83-83v-42h666v42l-83 83z m-83-41h-334v250c0 103 63 187 167 187s167-84 167-187v-250z" horiz-adv-x="1000" />

<glyph glyph-name="ic_tune_24px" unicode="&#xe819;" d="M125 142v-84h250v84h-250z m0 500v-84h417v84h-417z m417-667v83h333v84h-333v83h-84v-250h84z m-250 500v-83h-167v-84h167v-83h83v250h-83z m583-167v84h-417v-84h417z m-250 167h83v83h167v84h-167v83h-83v-250z" horiz-adv-x="1000" />

<glyph glyph-name="ic_delete_24px" unicode="&#xe81a;" d="M250 58c0-45 38-83 83-83h334c46 0 83 38 83 83v500h-500v-500z m542 625h-146l-42 42h-208l-42-42h-146v-83h584v83z" horiz-adv-x="1000" />

<glyph glyph-name="ic_apps_24px" unicode="&#xe81b;" d="M167 517h166v166h-166v-166z m250-500h166v166h-166v-166z m-250 0h166v166h-166v-166z m0 250h166v166h-166v-166z m250 0h166v166h-166v-166z m250 416v-166h166v166h-166z m-250-166h166v166h-166v-166z m250-250h166v166h-166v-166z m0-250h166v166h-166v-166z" horiz-adv-x="1000" />

<glyph glyph-name="ic_arrow_upward" unicode="&#xe81c;" d="M542 58v467l204-204c17-17 42-17 58 0 17 17 17 42 0 58l-275 275c-16 17-41 17-58 0l-275-275c-17-16-17-41 0-58 17-17 42-17 58 0l204 204v-467c0-20 17-41 42-41s42 21 42 41z" horiz-adv-x="1000" />

<glyph glyph-name="ic_arrow_downward" unicode="&#xe81d;" d="M458 642v-467l-204 204c-16 17-41 17-58 0-17-16-17-41 0-58l275-275c17-17 42-17 58 0l275 275c17 17 17 42 0 58-16 17-41 17-58 0l-204-204v467c0 25-17 41-42 41s-42-16-42-41z" horiz-adv-x="1000" />

<glyph glyph-name="verification-mark" unicode="&#xe81e;" d="M375 175l-175 175-58-58 233-234 500 500-58 59-442-442z" horiz-adv-x="1000" />

<glyph glyph-name="done-all" unicode="&#xe81f;" d="M750 558l-59 59-264-264 59-59 264 264z m177 59l-441-441-174 174-59-59 233-233 500 500-59 59z m-910-326l233-233 59 59-233 233-59-59z" horiz-adv-x="1000" />

<glyph glyph-name="building-company" unicode="&#xe820;" d="M883 598c-95 42-215 96-361 163l-3 1c-5 2-9 4-11 5h-16c-47-22-119-54-213-96-61-28-116-53-164-74-16-7-26-18-32-31v-16l3-6c4-7 8-13 11-15 8-6 18-9 28-9h423c143 1 250 1 322 0 12 0 22 2 30 7 8 4 13 12 17 23v16c-3 8-7 14-13 20-5 4-12 8-21 12z m-9-588c-247 0-495 0-743 0-12 0-22-2-30-6-8-5-13-13-17-24v-18c5-14 15-24 29-29h775c15 5 25 16 29 31v15c-7 20-21 31-43 31z m-700 97c-2 1-4 1-6 0h-2c-10-1-18-5-25-12-6-7-10-15-10-24 0-12 4-21 11-29 8-7 19-11 32-11h652c9 0 15 1 21 4 7 4 13 9 17 17 4 7 6 15 5 23-1 9-5 16-11 22-7 6-15 9-24 10-6 1-9 2-11 3 0 1 0 4 0 10 0 141-1 247-1 317 0 4 0 7 1 9 2 1 4 2 9 2 6 0 11 2 15 7 3 5 4 11 3 16-3 10-10 15-22 15h-656c-6 0-11-2-15-5-4-3-6-7-7-13 0-6 2-11 5-15 4-3 9-5 15-5 3 0 6-1 7-2 1-2 1-4 1-7v-326c0-4-1-6-4-6z m466 341c8 0 18 0 33 0 28 0 50 0 64 0 4 0 6 0 8-2 1-1 1-3 1-7v-322c0-4-1-7-2-8-1-1-4-2-7-2-32 1-64 1-97 0-5 0-8 3-8 8v325c0 4 1 6 2 6 1 2 3 2 6 2z m-188 0c32 0 64 0 96 0 4 0 6 0 7-2 1 0 2-2 2-6v-324c0-4-1-6-2-7-1-1-3-1-7-1h-95c-4 0-6 0-8 1-1 1-2 3-2 7 1 36 1 90 1 162 0 72 0 126-1 162 0 3 1 5 2 6 2 2 4 2 7 2z m-189 0c15 0 36 0 64 0h33c3 0 5 0 6-2 1-1 2-3 2-6v-324c0-4-1-6-2-7-1-1-3-1-6-1h-98c-3 0-5 1-6 2-1 1-1 3-1 6v323c0 3 0 5 1 7 2 1 4 2 7 2z" horiz-adv-x="1000" />

<glyph glyph-name="filter-alt" unicode="&#xe821;" d="M485 60c-10 0-20 5-25 10-10 5-10 15-10 25v240l-235 300c-10 10-10 20-5 30s15 15 30 15h540c15 0 25-5 30-15s5-25-5-35l-235-295v-240c0-10-5-20-10-25-5-5-15-10-25-10h-50z" horiz-adv-x="1000" />

<glyph glyph-name="edit" unicode="&#xe822;" d="M146 131v-156h156l461 461-156 156-461-461z m738 426c16 16 16 42 0 58l-98 98c-16 16-42 16-58 0l-77-76 157-157 76 77z" horiz-adv-x="1042" />

<glyph glyph-name="location-on" unicode="&#xe823;" d="M500 767c-161 0-292-131-292-292 0-174 185-413 260-505 17-20 47-20 64 0 76 92 260 331 260 505 0 161-131 292-292 292z m0-396c-57 0-104 47-104 104 0 58 47 104 104 104 58 0 104-46 104-104 0-57-46-104-104-104z" horiz-adv-x="1000" />

<glyph glyph-name="region" unicode="&#xe824;" d="M470 425h-225c-5 0-10 0-10-5-5-5-10-5-10-10l-45-150 300-35 25 115c-15 30-30 60-35 85z m275-225l90-10-25 95-10-20c-20-20-35-45-55-65z m-195 70l-10-45 50-5c-15 15-25 35-40 50l0 0z m-425-210c0-5 0-15 5-20 5-5 10-5 15-5h295l30 135-305 35-40-145z m730 65l-325 35-25-125h350c5 0 10 0 15 5 5 5 5 10 5 15 0 0 0 5 0 5l-20 65z m-185 50c0 0 5-5 10-5s5 0 10 5c30 35 60 70 90 110 30 40 50 75 65 115 20 50 35 90 35 130 0 35-10 70-25 100-20 30-40 55-70 70-30 20-65 25-100 25s-70-10-100-25c-30-20-55-40-70-70-20-30-25-65-25-100 0-40 10-80 35-130 15-35 40-75 70-115 10-40 40-75 75-110z m5 475c20 0 40-5 60-15 20-10 35-25 45-45 10-20 20-40 20-60s-5-40-15-60c-10-20-25-35-45-45s-40-15-65-15-40 5-60 15-35 25-45 45c-10 20-15 40-15 60 0 20 5 40 15 60 10 20 25 35 45 45 20 10 40 15 60 15z" horiz-adv-x="1000" />

<glyph glyph-name="add" unicode="&#xe825;" d="M750 308h-208v-208c0-21-17-42-42-42s-42 21-42 42v208h-208c-25 0-42 17-42 42s17 42 42 42h208v208c0 25 17 42 42 42s42-17 42-42v-208h208c21 0 42-17 42-42s-21-42-42-42z" horiz-adv-x="1000" />

<glyph glyph-name="minus" unicode="&#xe826;" d="M750 308h-500c-25 0-42 17-42 42s17 42 42 42h500c21 0 42-17 42-42s-21-42-42-42z" horiz-adv-x="1000" />

<glyph glyph-name="person_solid_usersingle" unicode="&#xe827;" d="M546 350c34 0 65 9 94 26 29 17 51 39 68 68 17 29 25 60 25 94 0 33-8 64-25 93-17 29-39 52-68 69-29 17-60 25-94 25-34 0-65-8-94-25-28-17-51-40-68-69-17-28-26-59-26-93 0-34 9-66 26-95 17-28 40-51 68-68 29-17 60-25 94-25z m0-94c-34 0-71-3-112-11-45-8-86-20-123-35-42-17-76-36-100-59-27-25-40-52-40-82v-94h750v94c0 30-14 57-41 82-24 23-57 42-99 59-37 15-78 27-123 35-41 8-78 11-112 11z" horiz-adv-x="1063" />

<glyph glyph-name="group" unicode="&#xe828;" d="M667 392c69 0 124 56 124 125 0 69-55 125-124 125-69 0-125-56-125-125 0-69 56-125 125-125z m-334 0c70 0 125 56 125 125 0 69-55 125-125 125-69 0-125-56-125-125 0-69 56-125 125-125z m0-84c-97 0-291-48-291-145v-63c0-23 18-42 41-42h500c23 0 42 19 42 42v63c0 97-195 145-292 145z m334 0c-12 0-26 0-41-2 1 0 2-1 2-1 47-35 80-81 80-142v-63c0-15-3-29-7-42h216c23 0 41 19 41 42v63c0 97-194 145-291 145z" horiz-adv-x="1000" />

<glyph glyph-name="visibility" unicode="&#xe829;" d="M500 600c158 0 299-89 368-229-69-141-210-229-368-229-158 0-299 88-367 229 68 140 209 229 367 229z m0 83c-208 0-386-129-458-312 72-183 250-313 458-313 208 0 386 130 458 313-72 183-250 312-458 312z m0-208c58 0 104-47 104-104 0-58-46-104-104-104-57 0-104 46-104 104 0 57 47 104 104 104z m0 83c-103 0-187-84-187-187 0-103 84-188 187-188 103 0 188 85 188 188 0 103-85 187-188 187z" horiz-adv-x="1000" />
</font>
</defs>
</svg>
