<?xml version="1.0" standalone="no"?>
<!DOCTYPE svg PUBLIC "-//W3C//DTD SVG 1.1//EN" "http://www.w3.org/Graphics/SVG/1.1/DTD/svg11.dtd">
<svg xmlns="http://www.w3.org/2000/svg">
<metadata>Copyright (C) 2026 by original authors @ fontello.com</metadata>
<defs>
<font id="fontello" horiz-adv-x="1000" >
<font-face font-family="fontello" font-weight="400" font-stretch="normal" units-per-em="1000" ascent="850" descent="-150" />
<missing-glyph horiz-adv-x="1000" />
<glyph glyph-name="arrow-drop-down" unicode="&#xe800;" d="M292 433l208-208 208 208h-416z" horiz-adv-x="1000" />

<glyph glyph-name="draw-shape-rectangle" unicode="&#xe812;" d="M958 600c0-23-18-42-41-42h-42v-416h42c23 0 41-19 41-42v-167c0-23-18-41-41-41h-167c-23 0-42 18-42 41v42h-416v-42c0-23-19-41-42-41h-167c-23 0-41 18-41 41v167c0 23 18 42 41 42h42v416h-42c-23 0-41 19-41 42v167c0 23 18 41 41 41h167c23 0 42-18 42-41v-42h416v42c0 23 19 41 42 41h167c23 0 41-18 41-41v-167z m-208-458h42v416h-42c-23 0-42 19-42 42v42h-416v-42c0-23-19-42-42-42h-42v-416h42c23 0 42-19 42-42v-42h416v42c0 23 19 42 42 42z" horiz-adv-x="1000" />

<glyph glyph-name="check" unicode="&#xe813;" d="M375 176l-145 145c-16 16-42 16-58 0-17-16-17-42 0-59l174-174c16-16 43-16 59 0l440 441c17 16 17 42 0 58-16 17-42 17-58 0l-412-411z" horiz-adv-x="1000" />

<glyph glyph-name="filter-list" unicode="&#xe814;" d="M458 100h84c23 0 41 19 41 42 0 23-18 41-41 41h-84c-23 0-41-18-41-41 0-23 18-42 41-42z m-333 458c0-23 19-41 42-41h666c23 0 42 18 42 41 0 23-19 42-42 42h-666c-23 0-42-19-42-42z m167-250h416c23 0 42 19 42 42 0 23-19 42-42 42h-416c-23 0-42-19-42-42 0-23 19-42 42-42z" horiz-adv-x="1000" />

<glyph glyph-name="refresh-1" unicode="&#xe815;" d="M735 585c-60 61-143 98-235 98-184 0-333-149-333-333s149-333 333-333c155 0 285 106 322 250h-87c-34-97-126-167-235-167-138 0-250 112-250 250s112 250 250 250c69 0 131-29 176-74l-134-134h291v291l-98-98z" horiz-adv-x="1000" />

<glyph glyph-name="dashboard" unicode="&#xe82e;" d="M792 642v-84h-167v84h167z m-417 0v-250h-167v250h167z m417-334v-250h-167v250h167z m-417-166v-84h-167v84h167z m500 583h-333v-250h333v250z m-417 0h-333v-417h333v417z m417-333h-333v-417h333v417z m-417-167h-333v-250h333v250z" horiz-adv-x="1000" />

<glyph glyph-name="access-time" unicode="&#xe82f;" d="M500 767c-230 0-417-187-417-417 0-230 187-417 417-417 230 0 417 187 417 417 0 230-187 417-417 417z m0-750c-184 0-333 149-333 333 0 184 149 333 333 333 184 0 333-149 333-333 0-184-149-333-333-333z m-9 541h-3c-16 0-30-13-30-30v-196c0-15 8-29 21-36l173-104c14-8 32-4 41 10 8 14 4 33-11 41l-161 96v189c0 17-13 30-30 30v0z" horiz-adv-x="1000" />

<glyph glyph-name="done-all" unicode="&#xe830;" d="M721 588c-16 16-43 16-59 0l-235-235 59-59 235 235c16 16 16 43 0 59z m177 0l-412-412-145 145c-16 16-43 16-59 0-16-16-16-43 0-59l174-174c17-16 43-16 59 0l441 441c17 16 17 42 0 59h0c-16 16-42 16-58 0z m-851-326l174-174c16-17 42-17 59 0l29 29-204 204c-16 16-42 16-58 0-17-16-17-43 0-59z" horiz-adv-x="1000" />

<glyph glyph-name="draw-shape-line" unicode="&#xe831;" d="M42 733c0 42 33 75 75 75h100c41 0 75-33 75-75v-100c0-41-34-75-75-75h-100c-42 0-75 34-75 75v100z m666-666c0 41 34 75 75 75h100c42 0 75-34 75-75v-100c0-42-33-75-75-75h-100c-41 0-75 33-75 75v100z m-403 419l339-339 59 59-339 339-59-59z" horiz-adv-x="1000" />

<glyph glyph-name="file-import-download" unicode="&#xe833;" d="M750 225v-125h-500v125h-83v-125c0-46 37-83 83-83h500c46 0 83 37 83 83v125h-83z m-42 167l-58 58-108-107v340h-84v-340l-108 107-58-58 208-209 208 209z" horiz-adv-x="1000" />

<glyph glyph-name="location-on" unicode="&#xe834;" d="M500 767c-160 0-292-132-292-292 0-219 292-542 292-542s292 323 292 542c0 160-132 292-292 292z m-208-292c0 115 93 208 208 208s208-93 208-208c0-121-120-300-208-412-87 112-208 293-208 412z m208-104c58 0 104 46 104 104s-46 104-104 104-104-46-104-104 46-104 104-104z" horiz-adv-x="1000" />

<glyph glyph-name="notifications" unicode="&#xe835;" d="M500-67c46 0 83 38 83 84h-166c0-46 37-84 83-84z m250 250v209c0 128-68 235-187 263v28c0 35-28 63-63 63-35 0-62-28-62-63v-28c-120-28-188-135-188-263v-209l-83-83v-42h666v42l-83 83z m-83-41h-334v250c0 103 63 187 167 187 104 0 167-84 167-187v-250z" horiz-adv-x="1000" />

<glyph glyph-name="draw-shape-spot" unicode="&#xe836;" d="M875 350c0 205-170 375-375 375-205 0-375-170-375-375s170-375 375-375v-85c-255 0-460 205-460 460 0 255 205 460 460 460 255 0 460-205 460-460 0-255-205-460-460-460v85c205 0 375 170 375 375z m-165 0c0-115-95-210-210-210-115 0-210 95-210 210 0 115 95 210 210 210 115 0 210-95 210-210z" horiz-adv-x="1000" />

<glyph glyph-name="refresh" unicode="&#xe837;" d="M733 588c-58 58-141 95-233 95-183 0-333-150-333-333s150-333 333-333c154 0 283 104 321 250h-88c-33-96-125-167-233-167-137 0-250 113-250 250s113 250 250 250c71 0 129-29 175-75l-133-133h291v291l-100-95z" horiz-adv-x="1000" />

<glyph glyph-name="settings" unicode="&#xe838;" d="M808 308c0 13 5 25 5 42s0 29-5 42l88 71c8 4 8 16 4 25l-83 145c0 5-9 9-17 9-4 0-4 0-8 0l-104-42c-21 17-46 29-71 42l-17 112c4 4-8 13-17 13h-166c-13 0-21-9-21-17l-17-112c-25-9-46-25-71-42l-104 42c0 4-4 4-4 4-8 0-17-4-21-13l-83-146c-4-4 0-16 8-25l88-66c0-13-4-25-4-42s0-29 4-42l-88-70c-8-5-8-17-4-25l83-146c0-4 9-9 17-9 4 0 4 0 8 0l105 42c20-17 45-29 70-42l17-108c0-8 8-17 21-17h167c8 0 20 9 20 17l17 108c25 9 50 25 71 42l104-42c4 0 4 0 8 0 9 0 13 5 17 9l83 146c5 8 5 20-4 25l-96 70 0 0z m-83 71c0-12 0-21 0-29s0-17 0-29l-4-46 37-29 46-33-29-50-54 20-42 17-37-29c-17-13-34-25-50-29l-46-17-8-46-9-62h-58l-8 58-9 46-46 17c-16 8-33 16-50 29l-37 29-46-17-54-21-29 50 46 34 37 29-4 46c0 12-4 21-4 29s0 17 4 29l4 46-33 37-46 34 29 50 54-21 42-17 37 29c17 13 34 25 50 30l46 16 9 46 8 58h58l9-54 4-50 46-16c16-9 33-17 50-30l37-29 46 17 54 21 29-50-46-34-37-29 4-50z m-225 138c-92 0-167-75-167-167s75-167 167-167c92 0 167 75 167 167s-75 167-167 167z m0-250c-46 0-83 37-83 83s37 83 83 83 83-37 83-83-37-83-83-83z" horiz-adv-x="1000" />

<glyph glyph-name="show-chart" unicode="&#xe839;" d="M175 108l221 221 135-135c17-17 44-17 61 2l298 335c14 17 14 42-2 57-17 16-44 16-61-3l-264-295-138 137c-17 17-42 17-58 0l-254-256c-17-17-17-42 0-58l4-5c16-14 41-14 58 0z" horiz-adv-x="1000" />

<glyph glyph-name="warning" unicode="&#xe83a;" d="M42-25h916l-458 792-458-792z m143 83l315 542 315-542h-630z m273 125h84v-83h-84v83z m0 250h84v-166h-84v166z" horiz-adv-x="1000" />

<glyph glyph-name="close" unicode="&#xe83b;" d="M763 613c-17 16-42 16-59 0l-204-205-204 205c-17 16-42 16-58 0-17-17-17-42 0-59l204-204-204-204c-17-17-17-42 0-58 16-17 41-17 58 0l204 204 204-204c17-17 42-17 59 0 16 16 16 41 0 58l-205 204 205 204c16 17 16 42 0 59z" horiz-adv-x="1000" />

<glyph glyph-name="info" unicode="&#xe83c;" d="M500 767c-230 0-417-187-417-417 0-230 187-417 417-417 230 0 417 187 417 417 0 230-187 417-417 417z m0-625c-23 0-42 18-42 41v167c0 23 19 42 42 42 23 0 42-19 42-42v-167c0-23-19-41-42-41z m42 333h-84v83h84v-83z" horiz-adv-x="1000" />

<glyph glyph-name="search" unicode="&#xe83d;" d="M646 267h-33l-12 11c50 58 76 138 62 222-20 116-116 209-233 223-176 22-325-127-303-303 14-117 107-213 223-233 84-14 164 12 222 62l11-12v-33l177-177c18-17 45-17 63 0 17 17 17 45 0 62l-177 178z m-250 0c-104 0-188 83-188 187 0 104 84 188 188 188 104 0 187-84 187-188 0-104-83-187-187-187z" horiz-adv-x="1000" />

<glyph glyph-name="videocam-off" unicode="&#xe83e;" d="M875 158v421l-167-166v187h-275l442-442z m-733 615l-59-59 114-114h-72v-500h572l125-125 59 59-739 739z" horiz-adv-x="1000" />

<glyph glyph-name="videocam" unicode="&#xe83f;" d="M708 413v187h-583v-500h583v188l167-167v458l-167-166z" horiz-adv-x="1000" />
</font>
</defs>
</svg>
